<svg width="300" height="281" viewBox="0 0 300 281" fill="none" xmlns="http://www.w3.org/2000/svg">
<path d="M88.5327 131H290C295.155 131 299.333 135.179 299.333 140.333C299.333 145.488 295.155 149.667 290 149.667H88.5327L147.266 208.4C150.911 212.045 150.911 217.955 147.266 221.6C143.621 225.245 137.712 225.245 134.067 221.6L59.4004 146.933C55.7555 143.288 55.7555 137.379 59.4004 133.734L134.067 59.067C137.712 55.4221 143.621 55.4221 147.266 59.067C150.911 62.7119 150.911 68.6214 147.266 72.2663L88.5327 131ZM0.666687 9.66667C0.666687 4.51201 4.84536 0.333336 10 0.333336C15.1547 0.333336 19.3334 4.51201 19.3334 9.66667V271C19.3334 276.155 15.1547 280.333 10 280.333C4.84536 280.333 0.666687 276.155 0.666687 271V9.66667Z" />
</svg>
