<?xml version="1.0" encoding="utf-8"?>
<!-- Svg Vector Icons : http://www.onlinewebfonts.com/icon -->
<!DOCTYPE svg PUBLIC "-//W3C//DTD SVG 1.1//EN" "http://www.w3.org/Graphics/SVG/1.1/DTD/svg11.dtd">
<svg version="1.1" xmlns="http://www.w3.org/2000/svg" xmlns:xlink="http://www.w3.org/1999/xlink" x="0px" y="0px" viewBox="0 0 1000 1000" enable-background="new 0 0 1000 1000" xml:space="preserve">
<metadata> Svg Vector Icons : http://www.onlinewebfonts.com/icon </metadata>
<g><g transform="translate(0.000000,511.000000) scale(0.100000,-0.100000)"><path d="M6253.7,4252.5c-124.4-40.2-189.5-80.4-275.6-174.2c-120.6-130.2-162.7-239.3-162.7-411.5c1.9-103.3,13.4-168.4,42.1-233.5c55.5-126.3,195.2-269.9,315.8-323.5c99.5-45.9,101.4-45.9,865.2-45.9h765.6l109.1,53.6c118.7,57.4,220.1,158.9,287.1,285.2c36.4,68.9,44,111,44,264.1s-7.7,195.2-44,264.1c-67,126.3-168.4,227.8-287.1,285.2l-109.1,53.6l-736.9,3.8C6510.2,4277.3,6311.1,4271.6,6253.7,4252.5z M7727.5,3850.5c67-28.7,124.4-112.9,124.4-183.8s-57.4-155-124.4-183.7c-95.7-38.3-1282.4-40.2-1376.2,0c-80.4,34.4-126.3,97.6-126.3,179.9c0,84.2,26.8,132.1,101.4,176.1c57.4,36.4,101.4,38.3,698.6,38.3C7532.3,3877.3,7675.9,3871.5,7727.5,3850.5z"/><path d="M4232.5,2625.5c-281.4-74.7-457.5-306.3-457.5-601c0-224,126.3-424.9,335-535.9l95.7-51.7h784.8h784.8l93.8,45.9c260.3,128.2,398.1,417.3,329.2,689.1c-61.2,239.3-210.5,390.5-446,451.7C5608.7,2661.9,4370.3,2663.8,4232.5,2625.5z M5748.4,2175.7c82.3-84.2,78.5-193.3-9.6-281.4l-67-67l-691,5.7l-692.9,5.7l-55.5,63.2c-80.4,88.1-76.6,178,9.6,264.2l65.1,65.1H5000h692.9L5748.4,2175.7z"/><path d="M6200.1,967.9c-201-78.5-356-279.4-386.6-499.6c-32.5-229.7,109.1-495.7,323.5-608.7c139.7-72.8,246.9-82.3,962.8-74.7l685.2,5.7l109.1,51.7c409.6,191.4,486.2,713.9,151.2,1014.5c-164.6,147.4-172.3,149.3-1014.5,149.3C6355.2,1004.3,6284.3,1000.4,6200.1,967.9z M7775.4,552.5c42.1-38.3,63.2-76.6,70.8-134c9.6-74.6,3.8-88-57.4-149.3l-67-67h-692.9H6336l-55.5,55.5c-90,90-70.8,246.9,36.4,313.9c45.9,26.8,132.1,30.6,725.4,32.5H7718L7775.4,552.5z"/><path d="M197.6,577.5c-99.5-55.5-95.7,22.9-97.6-2027v-1912.2l55.5-55.5l55.5-55.5h1098.7c983.8,0,1102.5,3.8,1142.7,30.6c70.8,49.8,97.6,141.7,97.6,331.1v170.3l72.7-19.1c132.1-36.4,344.5-128.2,907.3-390.5c1181-551.3,1671-706.3,2206.9-704.4c222,0,306.3,9.6,493.8,53.6c999.1,231.6,2337.1,874.7,3106.5,1493c225.9,181.8,415.4,392.4,495.8,551.2c59.3,118.7,67,153.1,67,281.4c0,530.2-329.2,867.1-853.7,870.9c-143.6,1.9-164.6-3.8-315.8-78.5c-109.1-53.6-264.2-162.7-476.6-333c-442.1-356-580-453.6-763.7-549.3c-197.1-101.4-235.4-99.5-254.6,7.7c-30.6,183.7-193.3,392.4-380.9,486.2c-268,137.8-499.6,172.3-1142.7,172.3c-581.9,0-511.1-19.1-928.3,245c-645,405.8-1249.9,597.2-1988.7,629.7l-245,11.5v313.9c0,227.8-7.7,331.1-26.8,379c-53.6,128.2-24.9,124.4-1211.6,124.4C461.8,602.3,234,598.5,197.6,577.5z M2128.9-1434.2v-1636.5h-813.5H502v1636.5V202.3h813.5h813.5V-1434.2z M3170.2-670.5c539.8-80.4,924.5-229.7,1450.9-564.6c432.6-275.6,421.1-271.8,993.4-268c503.4,3.8,715.9-13.4,922.6-78.5c137.8-42.1,268-141.6,290.9-220.1l11.5-44H5484.3c-1309.2,0-1357.1-1.9-1416.4-38.3c-122.5-74.6-124.4-241.2-5.7-327.3c45.9-32.5,143.6-34.5,1684.4-38.3c1514-1.9,1644.2,0,1732.2,30.6c237.4,82.3,463.2,227.8,918.7,595.3c446,359.8,526.4,409.6,648.9,409.6c273.7,0,423-141.6,446-417.3c9.6-120.6,5.7-134-51.7-218.2c-289-430.7-1732.2-1274.8-2775.4-1623.1c-962.8-321.6-1374.3-248.8-3043.4,530.2c-528.3,246.9-758,342.6-939.8,384.7l-132.1,32.5v955.1V-615l216.3-13.4C2883-636.1,3066.8-655.2,3170.2-670.5z"/></g></g>
</svg>