<svg width="20" height="20" viewBox="0 0 20 20" fill="none" xmlns="http://www.w3.org/2000/svg" stroke="none">
<path d="M5.33332 7.91667C5.33332 8.79112 4.62444 9.5 3.74999 9.5C2.87554 9.5 2.16666 8.79112 2.16666 7.91667C2.16666 7.04221 2.87554 6.33333 3.74999 6.33333C4.62444 6.33333 5.33332 7.04221 5.33332 7.91667Z" fill="none"/>
<path d="M9.08332 4.58333C9.08332 5.45778 8.37444 6.16667 7.49999 6.16667C6.62554 6.16667 5.91666 5.45778 5.91666 4.58333C5.91666 3.70888 6.62554 3 7.49999 3C8.37444 3 9.08332 3.70888 9.08332 4.58333Z" fill="none"/>
<path d="M14.0833 4.58333C14.0833 5.45778 13.3744 6.16667 12.5 6.16667C11.6255 6.16667 10.9167 5.45778 10.9167 4.58333C10.9167 3.70888 11.6255 3 12.5 3C13.3744 3 14.0833 3.70888 14.0833 4.58333Z" fill="none"/>
<path d="M17.8333 7.91667C17.8333 8.79112 17.1244 9.5 16.25 9.5C15.3755 9.5 14.6667 8.79112 14.6667 7.91667C14.6667 7.04221 15.3755 6.33333 16.25 6.33333C17.1244 6.33333 17.8333 7.04221 17.8333 7.91667Z" fill="none"/>
<path d="M14.0696 12.7078L14.0824 12.7229L14.0964 12.7369C14.1629 12.8034 14.2294 12.8694 14.2956 12.9352C14.7908 13.4273 15.2715 13.905 15.6294 14.435C16.0181 15.0107 16.2285 15.6025 16.1353 16.2765C15.9226 16.9866 15.426 17.6366 14.5836 17.8266C14.5085 17.8395 14.3416 17.8396 14.0439 17.8109C13.8009 17.7875 13.5134 17.75 13.181 17.7066C13.1176 17.6983 13.0527 17.6899 12.9861 17.6812C12.1653 17.5748 11.1351 17.45 10.0667 17.45H9.91665C8.84763 17.45 7.817 17.5771 6.99656 17.6844C6.93791 17.6921 6.88052 17.6997 6.82441 17.707C6.48257 17.752 6.18787 17.7908 5.94002 17.8144C5.63902 17.843 5.47436 17.8412 5.40352 17.8275C4.55758 17.6383 4.06095 16.9943 3.84843 16.2782C3.75875 15.6086 3.97064 15.0185 4.36073 14.4431C4.71931 13.9141 5.19974 13.4367 5.69436 12.9452C5.76114 12.8789 5.82817 12.8123 5.89521 12.7452L5.90822 12.7322L5.92023 12.7183C6.39144 12.1721 6.81263 11.6757 7.24466 11.1665C7.48527 10.8829 7.72924 10.5954 7.98708 10.2931C8.36296 9.86152 8.77423 9.4955 9.22882 9.33964L9.22884 9.33972L9.23752 9.33656C9.30395 9.31241 9.36841 9.295 9.4311 9.2836L9.4311 9.28363L9.43608 9.28267C9.59807 9.25152 9.77492 9.25 9.99999 9.25C10.2225 9.25 10.4049 9.2511 10.5656 9.27621C10.6267 9.28762 10.6895 9.30473 10.7541 9.32823L10.7541 9.32831L10.7628 9.33131C11.2196 9.48791 11.64 9.85679 12.0027 10.2826L12.0027 10.2826L12.0047 10.2849C12.4737 10.8285 12.8899 11.3191 13.3199 11.8258C13.5615 12.1106 13.8075 12.4005 14.0696 12.7078Z" fill="none"/>
</svg>
