<svg width="102" height="112" viewBox="0 0 102 112" fill="none" xmlns="http://www.w3.org/2000/svg">
<path d="M102 94.1904H0C0 93.5645 0.101999 92.9666 0.142799 92.3534C0.0613582 92.1257 0.0132635 91.8875 0 91.6461C0.00599623 91.2574 0.103849 90.8756 0.285601 90.5318C0.816303 86.5475 2.20515 82.7251 4.35674 79.3272C6.50832 75.9292 9.37165 73.0363 12.75 70.847V48.3942C12.7543 40.5014 15.2124 32.8044 19.7855 26.3642C24.3586 19.924 30.8215 15.0578 38.2832 12.4365C38.3498 9.11544 39.7189 5.95281 42.0965 3.6276C44.4741 1.3024 47.6707 0 51 0C54.3293 0 57.5259 1.3024 59.9035 3.6276C62.2811 5.95281 63.6502 9.11544 63.7168 12.4365C71.1785 15.0578 77.6414 19.924 82.2145 26.3642C86.7876 32.8044 89.2457 40.5014 89.25 48.3942V70.847C92.6283 73.0363 95.4917 75.9292 97.6433 79.3272C99.7948 82.7251 101.184 86.5475 101.714 90.5318C101.896 90.8756 101.994 91.2574 102 91.6461C101.987 91.8875 101.939 92.1257 101.857 92.3534C101.898 92.9666 102 93.5645 102 94.1904ZM84.15 73.7017V48.3942C84.15 47.3765 84.0888 46.3588 83.9944 45.3411C83.9689 45.0383 83.9281 44.7432 83.8924 44.443C83.8057 43.7136 83.6953 42.9911 83.561 42.2753C83.5049 41.9776 83.4538 41.6799 83.3901 41.3848C83.1979 40.486 82.9682 39.5956 82.7016 38.7159L82.6506 38.5276C82.3592 37.6114 82.0282 36.7083 81.6586 35.8206C81.5388 35.5356 81.4036 35.2583 81.2863 34.9784C81.0098 34.3604 80.7155 33.7504 80.404 33.1491C80.2536 32.8616 80.1057 32.5741 79.9476 32.2917C79.5566 31.5946 79.1418 30.9161 78.7032 30.2563C78.6139 30.1189 78.5349 29.9765 78.4482 29.8416C77.9382 29.0784 77.3747 28.3507 76.7984 27.6383C76.5816 27.3712 76.3521 27.1142 76.1277 26.8522C75.7248 26.3866 75.3117 25.9311 74.8833 25.4884C74.6283 25.234 74.3733 24.9592 74.1183 24.7023C73.6242 24.2229 73.1139 23.7604 72.5883 23.3157C72.3664 23.1249 72.1497 22.9264 71.9228 22.7407C71.2547 22.1979 70.5645 21.6831 69.8522 21.1963C69.5385 20.9775 69.2146 20.7765 68.8908 20.5704C68.4063 20.26 67.9142 19.9598 67.4118 19.6749C66.5079 19.1516 65.5757 18.6785 64.6195 18.2577C62.7032 17.3966 60.7085 16.7209 58.6628 16.2402V12.7749C58.6628 10.7506 57.8568 8.80919 56.4221 7.37778C54.9875 5.94637 53.0417 5.14221 51.0128 5.14221C48.9838 5.14221 47.038 5.94637 45.6034 7.37778C44.1687 8.80919 43.3627 10.7506 43.3627 12.7749V16.2402C41.317 16.7209 39.3223 17.3966 37.406 18.2577C36.448 18.6747 35.5156 19.1479 34.6137 19.6749C34.1037 19.9598 33.6192 20.26 33.1347 20.5704C32.8108 20.7765 32.487 20.9775 32.1734 21.1963C31.4645 21.6848 30.7709 22.1988 30.1028 22.7407C29.8758 22.9264 29.6591 23.1249 29.4372 23.3157C28.9145 23.7635 28.4019 24.2214 27.9072 24.7023C27.6522 24.9567 27.3972 25.2238 27.1422 25.4884C26.7138 25.9311 26.3007 26.3866 25.8978 26.8522C25.6734 27.1066 25.4464 27.361 25.2271 27.6383C24.6508 28.3507 24.095 29.0809 23.5773 29.8416C23.4855 29.9765 23.4064 30.1189 23.3223 30.2563C22.8837 30.9195 22.4689 31.598 22.0779 32.2917C21.9198 32.5741 21.7719 32.8616 21.6214 33.1491C21.31 33.7504 21.0157 34.3604 20.7391 34.9784C20.6142 35.2583 20.4842 35.5356 20.3694 35.8206C20.0022 36.7085 19.663 37.6015 19.3749 38.5276C19.357 38.5887 19.3443 38.6548 19.3239 38.7159C19.0561 39.5886 18.8318 40.4816 18.6354 41.3848C18.5717 41.6799 18.5206 41.9776 18.4645 42.2753C18.3285 42.9911 18.218 43.7136 18.133 44.443C18.0973 44.7432 18.0565 45.0383 18.031 45.3411C17.9112 46.3588 17.85 47.3765 17.85 48.3942V73.7017C14.8143 75.2149 12.1527 77.381 10.0569 80.044C7.96107 82.707 6.48325 85.8006 5.72985 89.1019H96.2701C95.5167 85.8006 94.0389 82.707 91.9431 80.044C89.8473 77.381 87.1857 75.2149 84.15 73.7017ZM76.5 48.3942C74.5419 43.8263 71.9681 39.5464 68.85 35.673C65.8348 31.9173 62.4142 28.5045 58.65 25.4961C63.6263 26.5704 68.1081 29.2534 71.4 33.1288C74.6122 37.5835 76.3909 42.9074 76.5 48.3942ZM51 106.912C53.0289 106.912 54.9747 106.107 56.4094 104.676C57.844 103.245 58.65 101.303 58.65 99.2788H63.75C63.75 102.653 62.4067 105.888 60.0156 108.274C57.6245 110.66 54.3815 112 51 112C47.6185 112 44.3755 110.66 41.9844 108.274C39.5933 105.888 38.25 102.653 38.25 99.2788H43.35C43.35 101.303 44.156 103.245 45.5906 104.676C47.0253 106.107 48.9711 106.912 51 106.912Z" />
</svg>
