<?xml version="1.0" encoding="utf-8"?>
<!-- Svg Vector Icons : http://www.onlinewebfonts.com/icon -->
<!DOCTYPE svg PUBLIC "-//W3C//DTD SVG 1.1//EN" "http://www.w3.org/Graphics/SVG/1.1/DTD/svg11.dtd">
<svg version="1.1" xmlns="http://www.w3.org/2000/svg" xmlns:xlink="http://www.w3.org/1999/xlink" x="0px" y="0px" viewBox="0 0 1000 1000" enable-background="new 0 0 1000 1000" xml:space="preserve">
<metadata> Svg Vector Icons : http://www.onlinewebfonts.com/icon </metadata>
<g><path d="M224.4,230.4h551.2v49H224.4V230.4L224.4,230.4z"/><path d="M720.5,990h-441C157.9,990,59,891.5,59,770.5V331.9c0-121,98.9-219.5,220.5-219.5h45.2l-8.3,30.8c-6.7,24.9-10.7,54.1-12,87.2h391c-1.3-33-5.3-62.2-12-87.2l-8.3-30.8h45.2c121.6,0,220.5,98.5,220.5,219.5v438.7C941,891.5,842.1,990,720.5,990z M262.2,162.2C175.7,170.9,108,243.7,108,331.9v438.7c0,94,76.9,170.5,171.5,170.5h441C815,941,892,864.5,892,770.5V331.9c0-88.2-67.7-160.9-154.2-169.6c4.8,27.6,7.2,58.2,7.2,92.6v24.5H255v-24.5C255,220.5,257.4,189.9,262.2,162.2z"/><path d="M683.6,143.2c-22.2-83-65.8-84.2-67.6-84.2H384.7c-2.4,0-46,1.2-68.2,84.2l-47.3-12.6C302,7.4,382.3,10,385.9,10l229.5,0c2.4,0,82.7-2.6,115.5,120.6L683.6,143.2z"/><path d="M470.8,804.3L237.4,609.6l31.4-37.6l196,163.5L756.9,390l37.4,31.6L470.8,804.3z"/></g>
</svg>